<?xml version="1.0" standalone="no"?>
<!DOCTYPE svg PUBLIC "-//W3C//DTD SVG 20010904//EN"
 "http://www.w3.org/TR/2001/REC-SVG-20010904/DTD/svg10.dtd">
<svg version="1.0" xmlns="http://www.w3.org/2000/svg"
 width="400.000000pt" height="400.000000pt" viewBox="0 0 400.000000 400.000000"
 preserveAspectRatio="xMidYMid meet">
<metadata>
Created by potrace 1.11, written by Peter Selinger 2001-2013
</metadata>
<g transform="translate(0.000000,400.000000) scale(0.100000,-0.100000)"
fill="#000000" stroke="none">
<path d="M0 2000 l0 -2000 2000 0 2000 0 0 2000 0 2000 -2000 0 -2000 0 0
-2000z m3240 785 l0 -705 85 0 85 0 0 -30 0 -30 -125 0 -125 0 0 50 c0 28 -3
50 -6 50 -3 0 -24 -13 -47 -28 -72 -48 -162 -82 -251 -94 -223 -30 -447 85
-542 277 -99 203 -61 476 88 623 109 108 210 147 378 147 151 0 251 -29 348
-102 l32 -24 0 255 0 256 -85 0 -85 0 0 30 0 30 125 0 125 0 0 -705z m-1670
670 c52 -8 117 -21 143 -29 132 -41 290 -160 362 -271 83 -131 120 -287 112
-470 -10 -218 -67 -357 -201 -490 -93 -93 -179 -141 -316 -176 -82 -22 -106
-23 -612 -26 l-528 -4 0 130 0 131 75 0 75 0 -2 478 -3 477 -72 3 -73 3 0 129
0 130 473 0 c366 0 493 -3 567 -15z m1840 -2155 l0 -660 75 0 75 0 0 -80 0
-80 -195 0 -195 0 0 35 0 35 -37 -23 c-157 -98 -410 -95 -557 5 -216 147 -288
466 -165 726 118 247 435 329 706 183 l53 -29 0 194 0 194 -90 0 -90 0 0 80 0
80 210 0 210 0 0 -660z m-2050 575 l0 -75 85 0 85 0 0 -190 c0 -104 -2 -190
-5 -190 -3 0 -29 13 -58 29 -148 83 -349 87 -501 9 -89 -45 -178 -153 -217
-264 -30 -86 -37 -260 -14 -356 34 -143 121 -261 242 -326 l58 -31 -252 -1
-253 0 0 735 0 735 415 0 415 0 0 -75z m830 -660 l0 -735 -130 0 -130 0 0 80
0 80 -80 0 -80 0 0 655 0 655 210 0 210 0 0 -735z m-735 75 l70 -35 0 -274 0
-274 -56 -28 c-97 -50 -249 -55 -331 -13 -49 26 -108 85 -136 138 -25 47 -27
60 -27 176 0 114 2 130 26 180 32 67 78 115 144 147 44 21 61 24 145 21 85 -3
103 -7 165 -38z m85 -775 l0 -35 -66 0 -66 0 64 34 c34 19 64 35 66 35 1 1 2
-15 2 -34z"/>
<path d="M2725 2989 c-162 -20 -276 -102 -345 -251 -160 -342 79 -711 445
-685 113 8 232 52 304 112 l31 27 0 331 -1 332 -42 31 c-113 85 -248 120 -392
103z"/>
<path d="M1117 3203 c-4 -3 -7 -220 -7 -481 l0 -474 168 4 c144 4 175 8 226
28 155 60 236 215 235 450 0 279 -111 439 -324 470 -79 11 -288 14 -298 3z"/>
<path d="M2852 1328 c-164 -24 -262 -172 -250 -377 7 -127 62 -223 157 -274
101 -55 229 -54 349 4 l62 30 0 269 0 268 -32 19 c-89 52 -195 74 -286 61z"/>
</g>
</svg>
