<?xml version="1.0" standalone="no"?>
<!DOCTYPE svg PUBLIC "-//W3C//DTD SVG 20010904//EN"
 "http://www.w3.org/TR/2001/REC-SVG-20010904/DTD/svg10.dtd">
<svg version="1.0" xmlns="http://www.w3.org/2000/svg"
 width="16.000000pt" height="16.000000pt" viewBox="0 0 16.000000 16.000000"
 preserveAspectRatio="xMidYMid meet">
<metadata>
Created by potrace 1.11, written by Peter Selinger 2001-2013
</metadata>
<g transform="translate(0.000000,16.000000) scale(0.004000,-0.004000)"
fill="#000000" stroke="none">
<path d="M2051 3639 c-39 -12 -63 -33 -85 -76 -30 -60 -32 -56 103 -393 98
-245 95 -239 110 -270 9 -21 102 -251 162 -403 11 -27 16 -46 12 -44 -114 64
-302 106 -472 105 -215 -2 -401 -59 -581 -176 -119 -78 -279 -261 -347 -397
-23 -44 -73 -178 -79 -210 -2 -11 -10 -52 -17 -92 -18 -93 -14 -285 8 -388 81
-388 316 -674 670 -815 56 -23 70 -27 110 -35 17 -3 48 -11 70 -17 128 -35
447 -4 590 56 112 48 149 67 225 118 116 77 230 193 301 308 77 124 129 261
153 410 4 19 6 276 5 570 -5 1611 -2 1441 -26 1481 -29 46 -64 64 -127 64
-103 0 -146 -60 -146 -201 0 -96 -5 -105 -14 -29 -4 28 -9 57 -12 66 -5 16
-12 58 -19 109 -2 14 -4 25 -5 25 -2 0 -5 15 -13 57 -11 57 -52 101 -107 115
-41 10 -90 6 -90 -8 0 -5 -6 -9 -13 -9 -22 0 -56 -34 -71 -71 -15 -38 -14 -63
7 -161 7 -38 11 -68 8 -68 -9 0 -45 83 -42 98 1 6 -3 12 -9 12 -6 0 -8 5 -5
10 3 6 2 10 -3 10 -5 0 -9 6 -9 13 -2 19 -27 81 -36 88 -5 3 -8 9 -8 13 1 3 0
8 0 11 -1 3 -2 8 -3 13 -1 4 -10 23 -20 43 -31 61 -102 89 -175 68z m319 -399
c0 -5 -2 -10 -4 -10 -3 0 -8 5 -11 10 -3 6 -1 10 4 10 6 0 11 -4 11 -10z
m-323 -964 c57 -9 191 -54 214 -72 8 -6 34 -22 59 -36 25 -14 66 -46 93 -70
26 -25 49 -42 52 -40 3 3 5 0 5 -6 0 -7 13 -25 28 -42 16 -16 37 -45 47 -65
11 -19 23 -35 28 -35 4 0 5 -4 2 -10 -3 -5 -2 -10 3 -10 14 0 71 -134 92 -217
55 -216 15 -455 -107 -638 -141 -211 -371 -336 -622 -338 -144 -2 -226 14
-341 66 -126 56 -267 186 -340 313 -144 251 -154 537 -28 793 81 164 215 288
389 358 132 53 287 71 426 49z"/>
</g>
</svg>
