<?xml version="1.0" standalone="no"?>
<!DOCTYPE svg PUBLIC "-//W3C//DTD SVG 20010904//EN"
 "http://www.w3.org/TR/2001/REC-SVG-20010904/DTD/svg10.dtd">
<svg version="1.0" xmlns="http://www.w3.org/2000/svg"
 width="16.000000pt" height="16.000000pt" viewBox="0 0 16.000000 16.000000"
 preserveAspectRatio="xMidYMid meet">
<metadata>
Created by potrace 1.11, written by Peter Selinger 2001-2013
</metadata>
<g transform="translate(0.000000,16.000000) scale(0.004000,-0.004000)"
fill="#000000" stroke="none">
<path d="M2156 3760 c-52 -20 -67 -33 -90 -77 -21 -42 -20 -108 3 -160 11 -23
17 -44 13 -47 -3 -3 0 -6 6 -6 7 0 11 -3 10 -7 -1 -5 3 -24 10 -43 7 -19 13
-37 13 -40 1 -3 9 -21 19 -40 10 -19 19 -39 20 -45 3 -11 17 -52 27 -75 3 -8
7 -17 8 -20 1 -3 9 -22 18 -44 9 -21 17 -44 17 -51 0 -6 3 -15 8 -19 4 -4 7
-11 7 -14 1 -4 6 -17 13 -29 7 -13 10 -23 7 -23 -3 0 0 -10 7 -22 6 -13 13
-27 14 -33 1 -5 16 -43 33 -84 17 -41 31 -79 31 -86 0 -7 7 -18 15 -25 8 -7
12 -16 10 -21 -3 -4 3 -27 14 -51 27 -61 72 -180 76 -201 2 -9 7 -23 12 -30
19 -30 6 -30 -56 0 -69 33 -204 76 -281 88 -70 11 -276 13 -328 4 -26 -5 -72
-14 -102 -20 -30 -7 -56 -11 -57 -10 -2 0 -29 -9 -60 -20 -131 -47 -236 -100
-316 -161 -20 -16 -41 -28 -47 -28 -6 0 -8 -4 -5 -10 3 -5 2 -10 -4 -10 -19 0
-147 -137 -203 -217 -67 -95 -133 -226 -152 -298 -1 -5 -7 -26 -14 -45 -6 -19
-13 -46 -16 -60 -3 -14 -7 -34 -10 -46 -17 -80 -23 -241 -12 -344 47 -438 285
-792 651 -970 103 -51 239 -95 323 -105 26 -4 58 -9 72 -11 42 -8 242 -4 305
6 108 17 129 22 210 47 90 28 235 100 310 152 255 181 433 469 480 778 18 121
11 2200 -8 2248 -41 105 -191 128 -270 41 -34 -37 -41 -62 -41 -144 0 -73 -9
-63 -25 28 -42 246 -55 280 -115 316 -93 55 -226 -5 -241 -110 -4 -24 -4 -57
-1 -73 3 -15 8 -43 11 -62 3 -19 8 -38 11 -43 3 -4 2 -8 -3 -8 -7 0 -68 146
-75 180 -2 8 -7 18 -11 21 -4 3 -9 16 -10 27 -1 12 -4 22 -8 22 -4 0 -10 13
-14 30 -7 33 -48 79 -85 97 -43 20 -76 21 -124 3z m32 -1517 c140 -32 285
-110 387 -211 111 -109 199 -262 247 -428 31 -106 33 -341 4 -449 -64 -243
-208 -431 -416 -542 -55 -30 -164 -71 -207 -79 -13 -2 -35 -7 -50 -10 -60 -14
-258 -13 -323 1 -367 83 -632 377 -685 760 -13 93 -7 203 19 330 7 36 38 119
64 175 105 224 330 400 582 455 85 18 291 17 378 -2z"/>
</g>
</svg>
